REM MD5 0be8370ab6fa81864f55bb77bc4e535f
FILE "SuperLite 1500 Series - Uno (Japan).bin" BINARY
  TRACK 01 MODE2/2352
    INDEX 01 00:00:00
  TRACK 02 AUDIO
    INDEX 00 06:52:27
    INDEX 01 06:54:27
  TRACK 03 AUDIO
    INDEX 00 09:10:62
    INDEX 01 09:12:62
  TRACK 04 AUDIO
    INDEX 00 09:17:61
    INDEX 01 09:19:61
  TRACK 05 AUDIO
    INDEX 00 09:36:72
    INDEX 01 09:38:72
REM LEADOUT 13:03:72
